<?xml version="1.0" standalone="no"?>
<!DOCTYPE svg PUBLIC "-//W3C//DTD SVG 20010904//EN"
 "http://www.w3.org/TR/2001/REC-SVG-20010904/DTD/svg10.dtd">
<svg version="1.0" xmlns="http://www.w3.org/2000/svg"
 width="898.000000pt" height="577.000000pt" viewBox="0 0 898.000000 577.000000"
 preserveAspectRatio="xMidYMid meet">

<g transform="translate(0.000000,577.000000) scale(0.100000,-0.100000)"
fill="#000000" stroke="none">
<path d="M3999 5586 c-2 -2 -45 -9 -94 -15 -162 -20 -352 -68 -462 -116 -21
-10 -49 -22 -63 -27 -105 -44 -276 -148 -386 -236 -108 -86 -204 -183 -204
-205 0 -16 23 -28 110 -57 101 -34 246 -106 351 -175 111 -72 310 -244 384
-330 28 -32 70 -81 95 -108 25 -27 51 -59 59 -71 8 -12 26 -35 40 -52 28 -33
36 -42 144 -189 83 -113 415 -595 436 -634 8 -14 17 -28 20 -31 4 -3 51 -70
104 -150 95 -140 113 -166 222 -316 146 -203 283 -364 457 -536 312 -307 584
-468 963 -567 l100 -26 5 -465 c4 -350 8 -470 18 -487 16 -29 43 -43 81 -43
32 0 65 26 506 385 99 80 245 198 324 262 80 64 235 191 345 281 111 90 230
187 265 215 35 29 83 68 106 87 23 19 89 73 146 120 509 415 747 843 801 1434
24 271 -23 575 -134 856 -141 357 -429 693 -777 905 -159 97 -352 180 -518
224 -90 23 -119 30 -158 37 -22 3 -67 11 -100 16 -58 10 -3176 24 -3186 14z
m3186 -204 c22 -6 67 -16 100 -23 69 -13 235 -59 250 -69 6 -4 28 -13 50 -20
126 -41 336 -168 500 -304 105 -87 147 -131 278 -296 52 -65 169 -275 204
-365 60 -158 95 -312 112 -507 10 -108 9 -153 -13 -353 -12 -117 -45 -262 -76
-340 -5 -11 -20 -51 -35 -90 -71 -186 -195 -374 -360 -544 -124 -128 -272
-258 -461 -406 -21 -16 -104 -83 -184 -148 -80 -64 -171 -139 -204 -165 -32
-26 -64 -52 -70 -57 -6 -6 -85 -71 -175 -145 -154 -127 -214 -176 -318 -260
-24 -19 -97 -79 -162 -132 -65 -54 -123 -98 -129 -98 -14 0 -24 261 -20 542
l3 247 -28 29 c-27 28 -48 36 -167 64 -261 60 -484 170 -746 367 -75 57 -328
310 -420 421 -70 85 -240 311 -305 405 -19 27 -39 55 -45 61 -6 7 -26 36 -45
66 -18 29 -36 55 -39 58 -3 3 -40 57 -82 120 -42 63 -112 167 -155 230 -43 63
-118 173 -166 243 -406 597 -731 926 -1089 1106 -27 13 -48 27 -48 31 0 10 51
54 100 87 146 97 348 182 505 213 33 7 83 17 110 22 111 22 333 25 1780 23
1083 -1 1521 -5 1550 -13z"/>
<path d="M1745 4864 c-85 -11 -176 -28 -225 -41 -30 -8 -68 -18 -85 -23 -138
-36 -367 -145 -500 -238 -105 -73 -252 -200 -299 -256 -20 -25 -43 -51 -49
-58 -7 -7 -38 -44 -68 -83 -180 -228 -308 -517 -358 -810 -7 -38 -17 -94 -22
-124 -12 -74 -11 -348 2 -430 64 -400 195 -705 408 -951 80 -93 153 -165 356
-350 88 -80 195 -178 240 -219 44 -41 103 -95 130 -120 105 -95 330 -303 510
-471 38 -36 93 -86 120 -110 61 -54 242 -221 342 -315 96 -91 121 -102 171
-76 64 33 64 32 60 468 -1 215 1 395 5 400 5 4 545 11 1200 14 1312 6 1254 3
1462 69 216 69 388 170 584 339 70 61 85 88 71 125 -12 32 -33 43 -143 71
-184 46 -382 143 -552 270 -121 90 -314 271 -405 380 -14 17 -47 57 -75 90
-27 33 -52 62 -55 65 -11 11 -119 149 -160 205 -105 142 -447 637 -485 702
-17 28 -197 302 -308 468 -157 235 -212 306 -342 444 -93 98 -282 261 -303
261 -6 0 -12 3 -14 8 -4 9 -108 73 -180 110 -112 58 -300 127 -413 151 -27 6
-70 15 -95 21 -44 11 -465 22 -525 14z m421 -194 c293 -52 464 -117 676 -259
59 -39 133 -95 165 -124 68 -62 211 -209 232 -240 8 -12 35 -46 59 -75 23 -30
140 -201 258 -380 279 -423 448 -674 496 -739 21 -29 38 -56 38 -62 0 -5 3
-11 8 -13 4 -1 30 -34 57 -73 27 -38 51 -72 55 -75 3 -3 23 -30 45 -60 157
-220 404 -502 565 -645 112 -99 277 -225 296 -225 3 0 18 -8 32 -19 44 -31
152 -85 240 -120 45 -18 82 -37 82 -42 0 -12 -125 -91 -210 -131 -122 -58
-183 -76 -388 -117 -36 -8 -450 -11 -1266 -11 -1223 0 -1259 -1 -1292 -34 -25
-26 -29 -70 -34 -385 l-5 -333 -36 33 c-19 19 -75 70 -124 114 -49 44 -103 94
-120 110 -17 17 -49 45 -71 64 -21 19 -73 66 -115 105 -41 39 -142 132 -224
206 -82 74 -190 173 -240 220 -50 47 -160 148 -245 225 -182 163 -368 347
-432 425 -255 311 -386 773 -338 1195 6 50 15 109 20 133 27 118 34 144 62
227 147 439 478 806 888 982 130 56 244 88 425 121 71 13 370 14 441 2z"/>
</g>
</svg>
